{"title":"Six.Nations.Rugby.Highlights.Weekend.1-2013-02-04-468p.x264","uid":8108679,"size":543256794,"categoryP":"video","categoryS":"hd___tv_shows","magnet":"?xt=urn:btih:e1b9ffe26551e69b9c85b3038e77df354687d8ab&amp;dn=Six.Nations.Rugby.Highlights.Weekend.1-2013-02-04-468p.x264&amp;tr=udp%3A%2F%2Ftracker.openbittorrent.com%3A80&amp;tr=udp%3A%2F%2Fopen.demonii.com%3A1337&amp;tr=udp%3A%2F%2Ftracker.coppersurfer.tk%3A6969&amp;tr=udp%3A%2F%2Fexodus.desync.com%3A6969","seeders":1,"leechers":0,"uploader":"rugbybill","files":2,"time":1360138889,"description":"SPORT: Six Nations Rugby Highlights\nOn: BBC 1 HD     \nDate: Monday 4th February 2013 \nTime: 01:40 to 02:25 \n\nA chance to catch up with the best of the action from the first weekend of the 2013 Six Nations. Twickenham hosted a Calcutta Cup clash between England and Scotland, 2012 Grand Slam winners Wales faced Ireland, while France travelled to Rome for a meeting with Italy.\n\n\nGeneral\nComplete name                            : 2013.02.04.6N.Highlights.468p.x264.mkv\nFormat                                   : Matroska\nFormat version                           : Version 4 / Version 2\nFile size                                : 518 MiB\nDuration                                 : 44mn 2s\nOverall bit rate                         : 1 645 Kbps\nEncoded date                             : UTC 2013-02-06 03:31:45\nWriting application                      : mkvmerge v6.0.0 ('Coming Up For Air') built on Jan 20 2013 09:52:00\nWriting library                          : libebml v1.3.0 + libmatroska v1.4.0\n\nVideo\nID                                       : 1\nFormat                                   : AVC\nFormat/Info                              : Advanced Video Codec\nFormat profile                           : &lt;a class=&quot;__cf_email__&quot; href=&quot;/cdn-cgi/l/email-protection&quot; data-cfemail=&quot;357d5c525d7579061b04&quot;&gt;[email&amp;#160;protected]&lt;/a&gt;&lt;script cf-hash='f9e31' type=&quot;text/javascript&quot;&gt;\n/* &lt;![CDATA[ */!function(){try{var t=&quot;currentScript&quot;in document?document.currentScript:function(){for(var t=document.getElementsByTagName(&quot;script&quot;),e=t.length;e--;)if(t[e].getAttribute(&quot;cf-hash&quot;))return t[e]}();if(t&amp;&amp;t.previousSibling){var e,r,n,i,c=t.previousSibling,a=c.getAttribute(&quot;data-cfemail&quot;);if(a){for(e=&quot;&quot;,r=parseInt(a.substr(0,2),16),n=2;a.length-n;n+=2)i=parseInt(a.substr(n,2),16)^r,e+=String.fromCharCode(i);e=document.createTextNode(e),c.parentNode.replaceChild(e,c)}}}catch(u){}}();/* ]]&gt; */&lt;/script&gt;\nFormat settings, CABAC                   : Yes\nFormat settings, ReFrames                : 11 frames\nCodec ID                                 : V_MPEG4/ISO/AVC\nDuration                                 : 44mn 2s\nBit rate                                 : 1 484 Kbps\nWidth                                    : 832 pixels\nHeight                                   : 468 pixels\nDisplay aspect ratio                     : 16:9\nFrame rate mode                          : Constant\nFrame rate                               : 25.000 fps\nColor space                              : YUV\nChroma subsampling                       : 4:2:0\nBit depth                                : 8 bits\nScan type                                : Progressive\nBits/(Pixel*Frame)                       : 0.152\nStream size                              : 467 MiB (90%)\nWriting library                          : x264 core 129 r2245 bc13772\nLanguage                                 : English\n\nAudio\nID                                       : 2\nFormat                                   : AC-3\nFormat/Info                              : Audio Coding 3\nMode extension                           : CM (complete main)\nFormat settings, Endianness              : Big\nCodec ID                                 : A_AC3\nDuration                                 : 44mn 2s\nBit rate mode                            : Constant\nBit rate                                 : 128 Kbps\nChannel(s)                               : 2 channels\nChannel positions                        : Front: L R\nSampling rate                            : 48.0 KHz\nBit depth                                : 16 bits\nCompression mode                         : Lossy\nStream size                              : 40.3 MiB (8%)\nLanguage                                 : English\n\n","torrent":{"xt":"urn:btih:e1b9ffe26551e69b9c85b3038e77df354687d8ab","amp;dn":"Six.Nations.Rugby.Highlights.Weekend.1-2013-02-04-468p.x264","amp;tr":["udp%3A%2F%2Ftracker.openbittorrent.com%3A80","udp%3A%2F%2Fopen.demonii.com%3A1337","udp%3A%2F%2Ftracker.coppersurfer.tk%3A6969","udp%3A%2F%2Fexodus.desync.com%3A6969"],"infoHash":"e1b9ffe26551e69b9c85b3038e77df354687d8ab","infoHashBuffer":{"type":"Buffer","data":[225,185,255,226,101,81,230,155,156,133,179,3,142,119,223,53,70,135,216,171]},"announce":[],"urlList":[]}}